<svg xmlns="http://www.w3.org/2000/svg" xmlns:xlink="http://www.w3.org/1999/xlink" width="1080" zoomAndPan="magnify" viewBox="0 0 810 809.999993" height="1080" preserveAspectRatio="xMidYMid meet" version="1.0"><defs><g/><clipPath id="6f5e8c86f9"><path d="M 38.691406 7.6875 L 746.691406 7.6875 L 746.691406 801.9375 L 38.691406 801.9375 Z M 38.691406 7.6875 " clip-rule="nonzero"/></clipPath></defs><g clip-path="url(#6f5e8c86f9)"><path fill="#040606" d="M 38.96875 7.695312 L 187.804688 388.300781 L 38.96875 801.871094 L 746.472656 380.769531 L 38.96875 7.695312 " fill-opacity="1" fill-rule="nonzero"/></g><g fill="#ffffff" fill-opacity="1"><g transform="translate(259.665538, 411.766129)"><g><path d="M 34.8125 -41.9375 C 35.164062 -51.425781 35.59375 -57.976562 36.09375 -61.59375 C 36.570312 -64.875 38.382812 -66.515625 41.53125 -66.515625 C 43.164062 -66.515625 44.484375 -65.984375 45.484375 -64.921875 C 46.484375 -63.867188 46.984375 -62.582031 46.984375 -61.0625 C 46.984375 -57.019531 46.671875 -51.003906 46.046875 -43.015625 C 45.421875 -35.035156 45.109375 -29.03125 45.109375 -25 C 45.109375 -15.144531 45.429688 -8.550781 46.078125 -5.21875 C 46.160156 -4.769531 46.203125 -4.363281 46.203125 -4 C 46.203125 -2.476562 45.644531 -1.222656 44.53125 -0.234375 C 43.414062 0.753906 42.117188 1.25 40.640625 1.25 C 38.585938 1.25 37.0625 0.332031 36.0625 -1.5 C 34.164062 -0.363281 32.203125 0.488281 30.171875 1.0625 C 28.140625 1.632812 26.039062 1.921875 23.875 1.921875 C 17.632812 1.921875 12.457031 -0.0664062 8.34375 -4.046875 C 4.144531 -8.109375 2.046875 -13.285156 2.046875 -19.578125 C 2.046875 -27.054688 4.160156 -33.097656 8.390625 -37.703125 C 12.617188 -42.304688 18.140625 -44.609375 24.953125 -44.609375 C 27.046875 -44.609375 28.910156 -44.382812 30.546875 -43.9375 C 32.191406 -43.5 33.613281 -42.832031 34.8125 -41.9375 Z M 33.96875 -28.796875 C 33.050781 -30.546875 31.851562 -31.851562 30.375 -32.71875 C 28.90625 -33.582031 27.15625 -34.015625 25.125 -34.015625 C 21.007812 -34.015625 17.921875 -32.820312 15.859375 -30.4375 C 13.796875 -28.0625 12.765625 -24.492188 12.765625 -19.734375 C 12.765625 -16.734375 13.878906 -14.160156 16.109375 -12.015625 C 18.335938 -9.878906 20.925781 -8.8125 23.875 -8.8125 C 26.007812 -8.8125 27.632812 -9.0625 28.75 -9.5625 C 29.5 -9.894531 30.78125 -10.785156 32.59375 -12.234375 C 33.0625 -12.617188 33.519531 -13.046875 33.96875 -13.515625 C 33.914062 -14.859375 33.914062 -19.953125 33.96875 -28.796875 Z M 33.96875 -28.796875 "/></g></g></g><g fill="#ffffff" fill-opacity="1"><g transform="translate(309.863528, 411.766129)"><g><path d="M 39.234375 -30.09375 C 38.984375 -25.832031 37.046875 -23.703125 33.421875 -23.703125 C 29.921875 -23.703125 28.171875 -25.507812 28.171875 -29.125 L 27.96875 -33.34375 C 21.707031 -32.34375 17.222656 -29.128906 14.515625 -23.703125 L 14.5625 -2.71875 C 14.5625 -1.125 14.019531 0.191406 12.9375 1.234375 C 11.851562 2.273438 10.476562 2.796875 8.8125 2.796875 C 7.082031 2.796875 5.742188 2.238281 4.796875 1.125 C 3.910156 0.125 3.46875 -1.15625 3.46875 -2.71875 L 3.46875 -30.046875 C 3.46875 -30.910156 3.492188 -32.195312 3.546875 -33.90625 C 3.597656 -35.613281 3.625 -36.898438 3.625 -37.765625 C 3.625 -39.328125 4.085938 -40.628906 5.015625 -41.671875 C 5.953125 -42.710938 7.285156 -43.234375 9.015625 -43.234375 C 12.097656 -43.234375 13.929688 -41.648438 14.515625 -38.484375 C 19.441406 -42.148438 24.910156 -43.984375 30.921875 -43.984375 C 36.484375 -43.984375 39.265625 -40.285156 39.265625 -32.890625 C 39.265625 -31.460938 39.253906 -30.53125 39.234375 -30.09375 Z M 39.234375 -30.09375 "/></g></g></g><g fill="#ffffff" fill-opacity="1"><g transform="translate(350.923231, 411.766129)"><g><path d="M 40.265625 2.75 C 38.992188 2.75 36.960938 1.359375 34.171875 -1.421875 C 31.617188 -0.191406 29.367188 0.734375 27.421875 1.359375 C 25.472656 1.984375 23.816406 2.296875 22.453125 2.296875 C 15.742188 2.296875 10.710938 0.503906 7.359375 -3.078125 C 4.015625 -6.671875 2.34375 -12.046875 2.34375 -19.203125 C 2.34375 -25.898438 4.816406 -31.632812 9.765625 -36.40625 C 14.710938 -41.175781 20.640625 -43.5625 27.546875 -43.5625 C 30.191406 -43.5625 33.25 -42.8125 36.71875 -41.3125 C 40.925781 -39.507812 43.03125 -37.410156 43.03125 -35.015625 C 43.03125 -34.015625 42.707031 -33.140625 42.0625 -32.390625 C 41.789062 -31.273438 41.578125 -29.875 41.421875 -28.1875 C 41.265625 -26.507812 41.1875 -24.539062 41.1875 -22.28125 C 41.1875 -16.96875 41.5625 -13.144531 42.3125 -10.8125 C 42.394531 -10.5625 43.035156 -9.113281 44.234375 -6.46875 C 45.316406 -4.070312 45.859375 -2.707031 45.859375 -2.375 C 45.859375 -0.90625 45.296875 0.3125 44.171875 1.28125 C 43.046875 2.257812 41.742188 2.75 40.265625 2.75 Z M 29.921875 -25.875 C 29.921875 -26.757812 29.984375 -27.78125 30.109375 -28.9375 C 30.234375 -30.09375 30.421875 -31.378906 30.671875 -32.796875 C 30.117188 -33.078125 29.625 -33.28125 29.1875 -33.40625 C 28.757812 -33.53125 28.394531 -33.59375 28.09375 -33.59375 C 24.300781 -33.59375 20.984375 -32.109375 18.140625 -29.140625 C 15.304688 -26.179688 13.890625 -22.753906 13.890625 -18.859375 C 13.890625 -15.128906 14.554688 -12.328125 15.890625 -10.453125 C 17.234375 -8.578125 19.238281 -7.640625 21.90625 -7.640625 C 23.632812 -7.640625 25.269531 -7.921875 26.8125 -8.484375 C 28.351562 -9.054688 29.804688 -9.898438 31.171875 -11.015625 C 30.335938 -17.640625 29.921875 -22.59375 29.921875 -25.875 Z M 29.921875 -25.875 "/></g></g></g><g fill="#ffffff" fill-opacity="1"><g transform="translate(398.408944, 411.766129)"><g><path d="M 24.078125 -42.859375 C 27.804688 -43.191406 30.476562 -43.359375 32.09375 -43.359375 C 37.289062 -43.359375 39.890625 -41.578125 39.890625 -38.015625 C 39.890625 -34.347656 37.125 -32.597656 31.59375 -32.765625 C 29.84375 -32.816406 27.1875 -32.691406 23.625 -32.390625 C 23.507812 -29.441406 23.476562 -25.679688 23.53125 -21.109375 C 23.644531 -14.546875 23.703125 -10.804688 23.703125 -9.890625 C 23.703125 -4.796875 23.378906 -0.765625 22.734375 2.203125 C 22.097656 5.179688 20.265625 6.671875 17.234375 6.671875 C 15.679688 6.671875 14.328125 6.171875 13.171875 5.171875 C 12.015625 4.171875 11.4375 2.90625 11.4375 1.375 C 11.4375 1.007812 11.460938 0.660156 11.515625 0.328125 C 12.179688 -3.648438 12.515625 -7.390625 12.515625 -10.890625 L 12.515625 -31.765625 C 12.015625 -31.734375 11.097656 -31.617188 9.765625 -31.421875 C 8.703125 -31.285156 7.894531 -31.21875 7.34375 -31.21875 C 5.644531 -31.21875 4.238281 -31.707031 3.125 -32.6875 C 2.007812 -33.675781 1.453125 -35.007812 1.453125 -36.6875 C 1.453125 -39.269531 2.816406 -40.96875 5.546875 -41.78125 C 6.773438 -42.132812 9.210938 -42.367188 12.859375 -42.484375 C 12.878906 -42.984375 13.054688 -44.554688 13.390625 -47.203125 C 14.171875 -53.398438 15.859375 -58.019531 18.453125 -61.0625 C 21.671875 -64.84375 26.617188 -66.734375 33.296875 -66.734375 C 38.390625 -66.734375 40.9375 -64.910156 40.9375 -61.265625 C 40.9375 -57.648438 38.570312 -55.84375 33.84375 -55.84375 C 30.476562 -55.84375 28.03125 -54.660156 26.5 -52.296875 C 25.363281 -50.535156 24.597656 -47.789062 24.203125 -44.0625 Z M 24.078125 -42.859375 "/></g></g></g><g fill="#ffffff" fill-opacity="1"><g transform="translate(441.847106, 411.766129)"><g><path d="M 33.71875 -33.59375 C 33.132812 -33.59375 32.445312 -33.613281 31.65625 -33.65625 C 30.863281 -33.695312 30.175781 -33.71875 29.59375 -33.71875 C 28.445312 -33.71875 27.125 -33.609375 25.625 -33.390625 C 26.125 -22.148438 26.375 -14.800781 26.375 -11.34375 C 26.375 -10.988281 26.382812 -10.316406 26.40625 -9.328125 C 26.4375 -8.335938 26.453125 -7.535156 26.453125 -6.921875 C 26.453125 -0.523438 24.4375 2.671875 20.40625 2.671875 C 18.875 2.671875 17.550781 2.195312 16.4375 1.25 C 15.21875 0.25 14.609375 -1 14.609375 -2.5 C 14.609375 -3.5 14.648438 -5 14.734375 -7 C 14.816406 -9.007812 14.859375 -10.515625 14.859375 -11.515625 C 14.859375 -14.878906 14.609375 -22.085938 14.109375 -33.140625 C 12.378906 -33.222656 9.769531 -33.453125 6.28125 -33.828125 C 2.789062 -34.203125 1.046875 -36.003906 1.046875 -39.234375 C 1.046875 -40.785156 1.570312 -42.101562 2.625 -43.1875 C 3.6875 -44.28125 5.050781 -44.828125 6.71875 -44.828125 C 7.75 -44.828125 10.113281 -44.65625 13.8125 -44.3125 C 13.78125 -45.207031 13.710938 -46.6875 13.609375 -48.75 C 13.492188 -50.53125 13.4375 -51.90625 13.4375 -52.875 C 13.4375 -54.4375 14.003906 -55.726562 15.140625 -56.75 C 16.285156 -57.78125 17.664062 -58.296875 19.28125 -58.296875 C 23.394531 -58.296875 25.453125 -54.832031 25.453125 -47.90625 L 25.375 -44.484375 C 27.101562 -44.734375 28.507812 -44.859375 29.59375 -44.859375 C 32.789062 -44.859375 34.972656 -44.648438 36.140625 -44.234375 C 38.367188 -43.453125 39.484375 -41.753906 39.484375 -39.140625 C 39.484375 -37.554688 38.9375 -36.234375 37.84375 -35.171875 C 36.757812 -34.117188 35.382812 -33.59375 33.71875 -33.59375 Z M 33.71875 -33.59375 "/></g></g></g><g fill="#ffffff" fill-opacity="1"><g transform="translate(482.113988, 411.766129)"><g><path d="M 25.296875 1.921875 C 18.640625 1.921875 13.195312 0.332031 8.96875 -2.84375 C 4.300781 -6.34375 1.96875 -11.28125 1.96875 -17.65625 C 1.96875 -24.695312 3.816406 -30.648438 7.515625 -35.515625 C 11.628906 -40.910156 17.175781 -43.609375 24.15625 -43.609375 C 29 -43.609375 33.019531 -42.832031 36.21875 -41.28125 C 40.425781 -39.21875 42.53125 -36.015625 42.53125 -31.671875 C 42.53125 -28.609375 40.816406 -25.894531 37.390625 -23.53125 C 35.835938 -22.445312 32.707031 -20.863281 28 -18.78125 L 13.9375 -12.5625 C 15.269531 -11.113281 16.882812 -10.023438 18.78125 -9.296875 C 20.675781 -8.578125 22.847656 -8.21875 25.296875 -8.21875 C 29.015625 -8.21875 32.171875 -8.984375 34.765625 -10.515625 C 37.078125 -11.878906 38.925781 -12.5625 40.3125 -12.5625 C 43.207031 -12.5625 44.65625 -11.15625 44.65625 -8.34375 C 44.65625 -5.175781 42.332031 -2.585938 37.6875 -0.578125 C 33.789062 1.085938 29.660156 1.921875 25.296875 1.921875 Z M 24.15625 -33.515625 C 21.570312 -33.515625 19.359375 -32.648438 17.515625 -30.921875 C 15.679688 -29.203125 14.210938 -26.613281 13.109375 -23.15625 C 16.242188 -24.519531 19.375 -25.867188 22.5 -27.203125 C 26.25 -28.898438 29.238281 -30.472656 31.46875 -31.921875 C 29.601562 -32.984375 27.164062 -33.515625 24.15625 -33.515625 Z M 24.15625 -33.515625 "/></g></g></g><g fill="#ffffff" fill-opacity="1"><g transform="translate(529.891794, 411.766129)"><g><path d="M 34.8125 -41.9375 C 35.164062 -51.425781 35.59375 -57.976562 36.09375 -61.59375 C 36.570312 -64.875 38.382812 -66.515625 41.53125 -66.515625 C 43.164062 -66.515625 44.484375 -65.984375 45.484375 -64.921875 C 46.484375 -63.867188 46.984375 -62.582031 46.984375 -61.0625 C 46.984375 -57.019531 46.671875 -51.003906 46.046875 -43.015625 C 45.421875 -35.035156 45.109375 -29.03125 45.109375 -25 C 45.109375 -15.144531 45.429688 -8.550781 46.078125 -5.21875 C 46.160156 -4.769531 46.203125 -4.363281 46.203125 -4 C 46.203125 -2.476562 45.644531 -1.222656 44.53125 -0.234375 C 43.414062 0.753906 42.117188 1.25 40.640625 1.25 C 38.585938 1.25 37.0625 0.332031 36.0625 -1.5 C 34.164062 -0.363281 32.203125 0.488281 30.171875 1.0625 C 28.140625 1.632812 26.039062 1.921875 23.875 1.921875 C 17.632812 1.921875 12.457031 -0.0664062 8.34375 -4.046875 C 4.144531 -8.109375 2.046875 -13.285156 2.046875 -19.578125 C 2.046875 -27.054688 4.160156 -33.097656 8.390625 -37.703125 C 12.617188 -42.304688 18.140625 -44.609375 24.953125 -44.609375 C 27.046875 -44.609375 28.910156 -44.382812 30.546875 -43.9375 C 32.191406 -43.5 33.613281 -42.832031 34.8125 -41.9375 Z M 33.96875 -28.796875 C 33.050781 -30.546875 31.851562 -31.851562 30.375 -32.71875 C 28.90625 -33.582031 27.15625 -34.015625 25.125 -34.015625 C 21.007812 -34.015625 17.921875 -32.820312 15.859375 -30.4375 C 13.796875 -28.0625 12.765625 -24.492188 12.765625 -19.734375 C 12.765625 -16.734375 13.878906 -14.160156 16.109375 -12.015625 C 18.335938 -9.878906 20.925781 -8.8125 23.875 -8.8125 C 26.007812 -8.8125 27.632812 -9.0625 28.75 -9.5625 C 29.5 -9.894531 30.78125 -10.785156 32.59375 -12.234375 C 33.0625 -12.617188 33.519531 -13.046875 33.96875 -13.515625 C 33.914062 -14.859375 33.914062 -19.953125 33.96875 -28.796875 Z M 33.96875 -28.796875 "/></g></g></g></svg>