<svg xmlns="http://www.w3.org/2000/svg" xmlns:xlink="http://www.w3.org/1999/xlink" width="1080" zoomAndPan="magnify" viewBox="0 0 810 809.999993" height="1080" preserveAspectRatio="xMidYMid meet" version="1.0"><defs><g/><clipPath id="1f5bcce0aa"><path d="M 106.164062 81 L 703.914062 81 L 703.914062 751.5 L 106.164062 751.5 Z M 106.164062 81 " clip-rule="nonzero"/></clipPath></defs><g clip-path="url(#1f5bcce0aa)"><path fill="#040606" d="M 106.398438 81.003906 L 232.054688 402.308594 L 106.398438 751.441406 L 703.730469 395.953125 L 106.398438 81.003906 " fill-opacity="1" fill-rule="nonzero"/></g><g fill="#ffffff" fill-opacity="1"><g transform="translate(286.962069, 419.525588)"><g><path d="M 31.046875 -37.421875 C 31.367188 -45.878906 31.753906 -51.722656 32.203125 -54.953125 C 32.628906 -57.878906 34.242188 -59.34375 37.046875 -59.34375 C 38.503906 -59.34375 39.679688 -58.867188 40.578125 -57.921875 C 41.472656 -56.984375 41.921875 -55.832031 41.921875 -54.46875 C 41.921875 -50.875 41.640625 -45.515625 41.078125 -38.390625 C 40.523438 -31.265625 40.25 -25.898438 40.25 -22.296875 C 40.25 -13.515625 40.535156 -7.632812 41.109375 -4.65625 C 41.179688 -4.257812 41.21875 -3.898438 41.21875 -3.578125 C 41.21875 -2.210938 40.71875 -1.085938 39.71875 -0.203125 C 38.726562 0.671875 37.578125 1.109375 36.265625 1.109375 C 34.429688 1.109375 33.066406 0.289062 32.171875 -1.34375 C 30.484375 -0.320312 28.734375 0.441406 26.921875 0.953125 C 25.109375 1.460938 23.234375 1.71875 21.296875 1.71875 C 15.734375 1.71875 11.117188 -0.0546875 7.453125 -3.609375 C 3.703125 -7.234375 1.828125 -11.851562 1.828125 -17.46875 C 1.828125 -24.144531 3.710938 -29.535156 7.484375 -33.640625 C 11.253906 -37.742188 16.179688 -39.796875 22.265625 -39.796875 C 24.128906 -39.796875 25.789062 -39.597656 27.25 -39.203125 C 28.71875 -38.804688 29.984375 -38.210938 31.046875 -37.421875 Z M 30.3125 -25.6875 C 29.488281 -27.25 28.414062 -28.414062 27.09375 -29.1875 C 25.78125 -29.957031 24.21875 -30.34375 22.40625 -30.34375 C 18.738281 -30.34375 15.984375 -29.28125 14.140625 -27.15625 C 12.304688 -25.039062 11.390625 -21.859375 11.390625 -17.609375 C 11.390625 -14.929688 12.378906 -12.632812 14.359375 -10.71875 C 16.347656 -8.8125 18.660156 -7.859375 21.296875 -7.859375 C 23.203125 -7.859375 24.65625 -8.082031 25.65625 -8.53125 C 26.320312 -8.820312 27.460938 -9.613281 29.078125 -10.90625 C 29.492188 -11.257812 29.90625 -11.644531 30.3125 -12.0625 C 30.257812 -13.25 30.257812 -17.789062 30.3125 -25.6875 Z M 30.3125 -25.6875 "/></g></g></g><g fill="#ffffff" fill-opacity="1"><g transform="translate(331.751887, 419.525588)"><g><path d="M 35 -26.84375 C 34.769531 -23.039062 33.046875 -21.140625 29.828125 -21.140625 C 26.691406 -21.140625 25.125 -22.753906 25.125 -25.984375 L 24.9375 -29.75 C 19.351562 -28.851562 15.359375 -25.984375 12.953125 -21.140625 L 13 -2.421875 C 13 -1.003906 12.515625 0.164062 11.546875 1.09375 C 10.578125 2.03125 9.347656 2.5 7.859375 2.5 C 6.316406 2.5 5.125 2 4.28125 1 C 3.488281 0.113281 3.09375 -1.023438 3.09375 -2.421875 L 3.09375 -26.8125 C 3.09375 -27.570312 3.113281 -28.71875 3.15625 -30.25 C 3.207031 -31.78125 3.234375 -32.925781 3.234375 -33.6875 C 3.234375 -35.082031 3.648438 -36.242188 4.484375 -37.171875 C 5.316406 -38.109375 6.503906 -38.578125 8.046875 -38.578125 C 10.796875 -38.578125 12.429688 -37.160156 12.953125 -34.328125 C 17.347656 -37.597656 22.226562 -39.234375 27.59375 -39.234375 C 32.550781 -39.234375 35.03125 -35.9375 35.03125 -29.34375 C 35.03125 -28.070312 35.019531 -27.238281 35 -26.84375 Z M 35 -26.84375 "/></g></g></g><g fill="#ffffff" fill-opacity="1"><g transform="translate(368.387947, 419.525588)"><g><path d="M 35.921875 2.453125 C 34.785156 2.453125 32.976562 1.210938 30.5 -1.265625 C 28.207031 -0.171875 26.191406 0.648438 24.453125 1.203125 C 22.722656 1.765625 21.25 2.046875 20.03125 2.046875 C 14.050781 2.046875 9.5625 0.445312 6.5625 -2.75 C 3.570312 -5.957031 2.078125 -10.75 2.078125 -17.125 C 2.078125 -23.101562 4.285156 -28.222656 8.703125 -32.484375 C 13.128906 -36.742188 18.421875 -38.875 24.578125 -38.875 C 26.929688 -38.875 29.660156 -38.203125 32.765625 -36.859375 C 36.515625 -35.242188 38.390625 -33.367188 38.390625 -31.234375 C 38.390625 -30.335938 38.101562 -29.554688 37.53125 -28.890625 C 37.28125 -27.898438 37.085938 -26.648438 36.953125 -25.140625 C 36.816406 -23.640625 36.75 -21.882812 36.75 -19.875 C 36.75 -15.132812 37.082031 -11.722656 37.75 -9.640625 C 37.820312 -9.421875 38.394531 -8.128906 39.46875 -5.765625 C 40.4375 -3.628906 40.921875 -2.414062 40.921875 -2.125 C 40.921875 -0.8125 40.414062 0.273438 39.40625 1.140625 C 38.40625 2.015625 37.242188 2.453125 35.921875 2.453125 Z M 26.6875 -23.078125 C 26.6875 -23.878906 26.742188 -24.789062 26.859375 -25.8125 C 26.972656 -26.84375 27.140625 -27.992188 27.359375 -29.265625 C 26.867188 -29.515625 26.429688 -29.691406 26.046875 -29.796875 C 25.660156 -29.910156 25.332031 -29.96875 25.0625 -29.96875 C 21.6875 -29.96875 18.726562 -28.644531 16.1875 -26 C 13.65625 -23.363281 12.390625 -20.304688 12.390625 -16.828125 C 12.390625 -13.503906 12.984375 -11.003906 14.171875 -9.328125 C 15.367188 -7.648438 17.160156 -6.8125 19.546875 -6.8125 C 21.085938 -6.8125 22.546875 -7.066406 23.921875 -7.578125 C 25.296875 -8.085938 26.59375 -8.835938 27.8125 -9.828125 C 27.0625 -15.734375 26.6875 -20.148438 26.6875 -23.078125 Z M 26.6875 -23.078125 "/></g></g></g><g fill="#ffffff" fill-opacity="1"><g transform="translate(410.7577, 419.525588)"><g><path d="M 21.484375 -38.234375 C 24.804688 -38.535156 27.1875 -38.6875 28.625 -38.6875 C 33.269531 -38.6875 35.59375 -37.097656 35.59375 -33.921875 C 35.59375 -30.640625 33.125 -29.078125 28.1875 -29.234375 C 26.625 -29.273438 24.253906 -29.160156 21.078125 -28.890625 C 20.972656 -26.253906 20.945312 -22.90625 21 -18.84375 C 21.09375 -12.976562 21.140625 -9.640625 21.140625 -8.828125 C 21.140625 -4.285156 20.851562 -0.6875 20.28125 1.96875 C 19.71875 4.625 18.082031 5.953125 15.375 5.953125 C 13.988281 5.953125 12.78125 5.503906 11.75 4.609375 C 10.71875 3.722656 10.203125 2.597656 10.203125 1.234375 C 10.203125 0.910156 10.226562 0.597656 10.28125 0.296875 C 10.875 -3.253906 11.171875 -6.59375 11.171875 -9.71875 L 11.171875 -28.328125 C 10.722656 -28.304688 9.90625 -28.207031 8.71875 -28.03125 C 7.769531 -27.90625 7.046875 -27.84375 6.546875 -27.84375 C 5.035156 -27.84375 3.78125 -28.285156 2.78125 -29.171875 C 1.789062 -30.054688 1.296875 -31.238281 1.296875 -32.71875 C 1.296875 -35.03125 2.515625 -36.546875 4.953125 -37.265625 C 6.046875 -37.585938 8.21875 -37.800781 11.46875 -37.90625 C 11.488281 -38.351562 11.648438 -39.753906 11.953125 -42.109375 C 12.648438 -47.640625 14.148438 -51.757812 16.453125 -54.46875 C 19.335938 -57.84375 23.753906 -59.53125 29.703125 -59.53125 C 34.253906 -59.53125 36.53125 -57.90625 36.53125 -54.65625 C 36.53125 -51.425781 34.414062 -49.8125 30.1875 -49.8125 C 27.1875 -49.8125 25.003906 -48.757812 23.640625 -46.65625 C 22.617188 -45.09375 21.9375 -42.644531 21.59375 -39.3125 Z M 21.484375 -38.234375 "/></g></g></g><g fill="#ffffff" fill-opacity="1"><g transform="translate(449.515971, 419.525588)"><g><path d="M 30.078125 -29.96875 C 29.554688 -29.96875 28.941406 -29.984375 28.234375 -30.015625 C 27.523438 -30.054688 26.910156 -30.078125 26.390625 -30.078125 C 25.378906 -30.078125 24.203125 -29.976562 22.859375 -29.78125 C 23.304688 -19.757812 23.53125 -13.207031 23.53125 -10.125 C 23.53125 -9.800781 23.539062 -9.195312 23.5625 -8.3125 C 23.59375 -7.4375 23.609375 -6.726562 23.609375 -6.1875 C 23.609375 -0.46875 21.804688 2.390625 18.203125 2.390625 C 16.835938 2.390625 15.660156 1.960938 14.671875 1.109375 C 13.578125 0.222656 13.03125 -0.890625 13.03125 -2.234375 C 13.03125 -3.128906 13.066406 -4.46875 13.140625 -6.25 C 13.210938 -8.039062 13.25 -9.382812 13.25 -10.28125 C 13.25 -13.28125 13.023438 -19.707031 12.578125 -29.5625 C 11.046875 -29.632812 8.722656 -29.835938 5.609375 -30.171875 C 2.492188 -30.503906 0.9375 -32.113281 0.9375 -35 C 0.9375 -36.382812 1.40625 -37.5625 2.34375 -38.53125 C 3.289062 -39.5 4.507812 -39.984375 6 -39.984375 C 6.914062 -39.984375 9.023438 -39.835938 12.328125 -39.546875 C 12.296875 -40.335938 12.234375 -41.648438 12.140625 -43.484375 C 12.035156 -45.078125 11.984375 -46.304688 11.984375 -47.171875 C 11.984375 -48.554688 12.492188 -49.707031 13.515625 -50.625 C 14.535156 -51.550781 15.765625 -52.015625 17.203125 -52.015625 C 20.878906 -52.015625 22.71875 -48.921875 22.71875 -42.734375 L 22.640625 -39.6875 C 24.171875 -39.914062 25.421875 -40.03125 26.390625 -40.03125 C 29.242188 -40.03125 31.195312 -39.84375 32.25 -39.46875 C 34.226562 -38.769531 35.21875 -37.253906 35.21875 -34.921875 C 35.21875 -33.503906 34.734375 -32.320312 33.765625 -31.375 C 32.796875 -30.4375 31.566406 -29.96875 30.078125 -29.96875 Z M 30.078125 -29.96875 "/></g></g></g><g fill="#ffffff" fill-opacity="1"><g transform="translate(485.444628, 419.525588)"><g><path d="M 22.5625 1.71875 C 16.625 1.71875 11.769531 0.300781 8 -2.53125 C 3.832031 -5.65625 1.75 -10.0625 1.75 -15.75 C 1.75 -22.03125 3.398438 -27.34375 6.703125 -31.6875 C 10.378906 -36.5 15.332031 -38.90625 21.5625 -38.90625 C 25.875 -38.90625 29.457031 -38.210938 32.3125 -36.828125 C 36.0625 -34.984375 37.9375 -32.128906 37.9375 -28.265625 C 37.9375 -25.523438 36.410156 -23.101562 33.359375 -21 C 31.972656 -20.03125 29.179688 -18.613281 24.984375 -16.75 L 12.4375 -11.203125 C 13.625 -9.910156 15.0625 -8.941406 16.75 -8.296875 C 18.4375 -7.648438 20.375 -7.328125 22.5625 -7.328125 C 25.882812 -7.328125 28.703125 -8.007812 31.015625 -9.375 C 33.078125 -10.59375 34.726562 -11.203125 35.96875 -11.203125 C 38.550781 -11.203125 39.84375 -9.953125 39.84375 -7.453125 C 39.84375 -4.617188 37.769531 -2.304688 33.625 -0.515625 C 30.144531 0.972656 26.457031 1.71875 22.5625 1.71875 Z M 21.5625 -29.890625 C 19.25 -29.890625 17.273438 -29.117188 15.640625 -27.578125 C 14.003906 -26.046875 12.6875 -23.738281 11.6875 -20.65625 C 14.488281 -21.875 17.28125 -23.082031 20.0625 -24.28125 C 23.414062 -25.789062 26.085938 -27.191406 28.078125 -28.484375 C 26.410156 -29.421875 24.238281 -29.890625 21.5625 -29.890625 Z M 21.5625 -29.890625 "/></g></g></g><g fill="#ffffff" fill-opacity="1"><g transform="translate(528.075004, 419.525588)"><g><path d="M 31.046875 -37.421875 C 31.367188 -45.878906 31.753906 -51.722656 32.203125 -54.953125 C 32.628906 -57.878906 34.242188 -59.34375 37.046875 -59.34375 C 38.503906 -59.34375 39.679688 -58.867188 40.578125 -57.921875 C 41.472656 -56.984375 41.921875 -55.832031 41.921875 -54.46875 C 41.921875 -50.875 41.640625 -45.515625 41.078125 -38.390625 C 40.523438 -31.265625 40.25 -25.898438 40.25 -22.296875 C 40.25 -13.515625 40.535156 -7.632812 41.109375 -4.65625 C 41.179688 -4.257812 41.21875 -3.898438 41.21875 -3.578125 C 41.21875 -2.210938 40.71875 -1.085938 39.71875 -0.203125 C 38.726562 0.671875 37.578125 1.109375 36.265625 1.109375 C 34.429688 1.109375 33.066406 0.289062 32.171875 -1.34375 C 30.484375 -0.320312 28.734375 0.441406 26.921875 0.953125 C 25.109375 1.460938 23.234375 1.71875 21.296875 1.71875 C 15.734375 1.71875 11.117188 -0.0546875 7.453125 -3.609375 C 3.703125 -7.234375 1.828125 -11.851562 1.828125 -17.46875 C 1.828125 -24.144531 3.710938 -29.535156 7.484375 -33.640625 C 11.253906 -37.742188 16.179688 -39.796875 22.265625 -39.796875 C 24.128906 -39.796875 25.789062 -39.597656 27.25 -39.203125 C 28.71875 -38.804688 29.984375 -38.210938 31.046875 -37.421875 Z M 30.3125 -25.6875 C 29.488281 -27.25 28.414062 -28.414062 27.09375 -29.1875 C 25.78125 -29.957031 24.21875 -30.34375 22.40625 -30.34375 C 18.738281 -30.34375 15.984375 -29.28125 14.140625 -27.15625 C 12.304688 -25.039062 11.390625 -21.859375 11.390625 -17.609375 C 11.390625 -14.929688 12.378906 -12.632812 14.359375 -10.71875 C 16.347656 -8.8125 18.660156 -7.859375 21.296875 -7.859375 C 23.203125 -7.859375 24.65625 -8.082031 25.65625 -8.53125 C 26.320312 -8.820312 27.460938 -9.613281 29.078125 -10.90625 C 29.492188 -11.257812 29.90625 -11.644531 30.3125 -12.0625 C 30.257812 -13.25 30.257812 -17.789062 30.3125 -25.6875 Z M 30.3125 -25.6875 "/></g></g></g></svg>